# xmcd
#
# Track frame offsets:
#	150
#	22580
#	40159
#	60073
#	82967
#	104540
#	126254
#	148296
#	173270
#	197199
#	218612
#	237306
#
# Disc length: 3446 seconds
# Revision: 1
# Processed by: cddbd v1.5.2PL0 Copyright (c) Steve Scherf et al.
# Submitted via: dBpowerAMP V12.0
#
DISCID=940d740c
DTITLE=Various Artist - Time Flies When You're Having Fun
DYEAR=2009
DGENRE=Soul
TTITLE0=SmokeyRobinson,AKAWilliamRobinsonJr,Detroit,MI - Time Flies
TTITLE1=SmokeyRobinson,AKAWilliamRobinsonJr,Detroit,MI - Don't Know Why
TTITLE2=SmokeyRobinson,AKAWilliamRobinsonJr,Detroit,MI - Girlfriend
TTITLE3=SmokeyRobinson,AKAWilliamRobinsonJr,Detroit,MI,featuringJoss Stone - You're The One For Me
TTITLE4=SmokeyRobinson,AKAWilliamRobinsonJr,Detroit,MI - One Time
TTITLE5=SmokeyRobinson,AKAWilliamRobinsonJr,Detroit,MI,featuringSantana - Please Don't Take Your Love
TTITLE6=SmokeyRobinson,AKAWilliamRobinsonJr,Detroit,MI - That Place
TTITLE7=SmokeyRobinson,AKAWilliamRobinsonJr,Detroit,MI - Love Bath
TTITLE8=SmokeyRobinson,AKAWilliamRobinsonJr,Detroit,MI - Whatcha Gonna Do
TTITLE9=SmokeyRobinson,AKAWilliamRobinsonJr,Detroit,MI - Satisfy You
TTITLE10=SmokeyRobinson,AKAWilliamRobinsonJr,Detroit,MI - You're Just My Life
TTITLE11=SmokeyRobinson,AKAWilliamRobinsonJr,Detroit,MI - I Want You Back
EXTD=
EXTT0=
EXTT1=
EXTT2=
EXTT3=
EXTT4=
EXTT5=
EXTT6=
EXTT7=
EXTT8=
EXTT9=
EXTT10=
EXTT11=
PLAYORDER=
